<?xml version="1.0" encoding="UTF-8"?>
<svg id="Layer_2" xmlns="http://www.w3.org/2000/svg" viewBox="0 0 28 24.96">
  <defs>
    <style>
      .cls-1 {
        fill: #fff;
      }
    </style>
  </defs>
  <g id="Favicon">
    <g>
      <path class="cls-1" d="M13.99,2.04c-5.68.04-10.59,4.05-11.69,9.61-.58,2.91-.12,5.68,1.33,8.27.09.17.19.24.4.25,1.12.02,1.98.99,1.92,2.14-.05,1.1-1.02,1.96-2.11,1.89-1.36-.08-2.24-1.39-1.81-2.68.03-.09.01-.22-.04-.3-.96-1.6-1.6-3.33-1.84-5.18-.55-4.2.51-7.96,3.27-11.19C5.49,2.43,8.11.88,11.24.28c4.21-.81,8.05.1,11.44,2.75,2.58,2.02,4.24,4.66,4.96,7.86.8,3.56.28,6.95-1.53,10.13-.11.19-.15.34-.08.57.35,1.12-.33,2.3-1.46,2.58-1.13.28-2.26-.44-2.5-1.58-.26-1.25.67-2.41,1.98-2.46.15,0,.22-.06.29-.18.88-1.55,1.4-3.21,1.55-4.98.48-5.87-3.42-11.22-9.17-12.59-.31-.07-.62-.14-.94-.17-.6-.07-1.2-.12-1.79-.17Z"/>
      <path class="cls-1" d="M17.79,13.74c-.28.25-.52.45-.74.66-.06.06-.08.16-.1.24-.24.92-.47,1.85-.71,2.77,0,.03-.02.06-.04.12-1.19-.66-2.41-.84-3.67-.17,0-.02-.02-.03-.02-.05,1.82-4.11,3.63-8.21,5.47-12.37.34,1.23.73,2.39,1.68,3.23.96.85,2.14,1.13,3.38,1.29v8.45c-2.25.16-3.91,1.35-5.25,3.18v-7.35Z"/>
      <path class="cls-1" d="M11.74,16.93c-.19-.74-.38-1.44-.55-2.14-.06-.26-.17-.45-.39-.6-.18-.12-.34-.26-.53-.41v7.23l-.04.02c-.06-.08-.12-.16-.18-.23-.58-.73-1.2-1.43-1.99-1.96-.89-.6-1.87-.9-2.93-.98-.05,0-.09-.01-.17-.02v-.23c0-2.64,0-5.29,0-7.93,0-.17.04-.23.22-.26.92-.14,1.81-.4,2.62-.87.98-.56,1.56-1.44,1.92-2.47.2-.59.32-1.21.48-1.82,0-.02.02-.04.04-.08.04.08.07.13.1.19,1.16,2.53,2.31,5.07,3.47,7.6.06.12.06.22,0,.35-.65,1.46-1.3,2.93-1.95,4.39-.03.06-.06.12-.11.22Z"/>
      <path class="cls-1" d="M14.04,24.94v-2.8c.36-.1.46-.21.42-.5-.03-.24-.23-.39-.51-.38-.27,0-.45.16-.47.4-.03.27.08.39.42.46v2.84c-.87-1.17-1.71-2.29-2.57-3.44.36-.65.69-1.32,1.08-1.95.28-.46.67-.8,1.23-.92.42-.09.8.02,1.14.24.42.26.74.62.98,1.05.26.48.52.96.76,1.45.03.06.04.18,0,.23-.8,1.09-1.62,2.18-2.43,3.26,0,.01-.02.02-.06.05Z"/>
    </g>
  </g>
</svg>